<svg width="149" height="130" viewBox="0 0 149 130" fill="none" xmlns="http://www.w3.org/2000/svg">
<path d="M65.6814 10.7973C70.335 10.9697 75.0174 11.0846 79.6997 10.941C81.1073 10.8979 82.5005 10.8404 83.9081 10.7973C83.7788 10.7973 83.6496 10.783 83.5203 10.7686C77.6027 10.4095 71.599 10.467 65.6958 10.7973" fill="white"/>
<path d="M137.74 9.88179C137.74 9.88179 105.294 14.7652 95.513 33.3079C95.3406 32.7334 94.3352 24.0725 94.091 20.9413C93.9331 18.9449 93.3011 14.837 92.1521 13.1566C91.4914 12.1799 89.8396 11.6772 87.8432 11.275C87.7139 9.10618 87.4984 7.56933 87.1106 6.66446C86.8808 6.13302 86.2776 5.67342 85.4014 5.28561C85.4014 5.17071 85.4158 5.04144 85.4158 4.92654V3.74876C85.4158 1.68048 83.7353 0 81.6671 0H67.8929C65.8246 0 64.1441 1.68048 64.1441 3.74876V4.92654C64.1441 5.04144 64.1441 5.15636 64.1585 5.27126C63.3973 5.60161 62.8658 6.00376 62.636 6.44902C62.0759 7.55497 61.7598 9.22108 61.6162 11.1314C59.433 11.5192 58.2696 11.7633 57.3791 12.6395C55.7417 14.2769 55.2821 18.5571 55.0667 20.6253C54.7507 23.5554 53.8745 31.9722 53.8745 32.36C52.2802 29.4155 50.3555 26.8733 48.2011 24.647C47.5835 24.0007 46.9372 23.3974 46.2909 22.8085C32.4162 10.3558 11.6328 9.86743 11.6328 9.86743C35.0446 22.4782 42.6139 28.5969 49.106 56.7053C50.8439 64.2029 53.4723 70.2641 56.388 75.1188C56.7184 78.9537 57.1062 82.3003 57.5228 84.3111C59.2033 92.2683 60.2948 100.312 62.5498 108.154C64.8192 115.996 68.3238 123.738 74.2988 130C77.4156 125.576 80.0584 120.894 82.1841 116.068C85.2578 109.059 87.6421 101.044 88.7337 95.9021C89.538 92.1246 91.1323 84.5697 91.6637 80.7491C91.836 79.4995 92.0228 78.0058 92.1951 76.3684C95.4268 71.3126 98.3713 64.8636 100.253 56.7053C106.745 28.6112 114.3 22.4782 137.726 9.86743M53.3862 56.7484C52.9122 52.5688 52.5387 48.346 51.5477 44.2382C50.255 40.0011 49.3501 37.1429 46.8653 34.0261C46.0754 33.0063 45.2567 32.0152 44.438 31.0386C44.9407 31.5556 45.4435 32.0727 45.9462 32.6041C49.1778 35.9795 51.4184 38.6079 53.142 42.4859C53.3861 43.0317 54.3341 45.2005 54.9374 48.188C55.2677 49.768 55.3252 50.7878 55.5693 53.5455C55.6124 54.0769 56.0577 59.1471 56.2731 61.1579C56.5316 63.5421 57.0774 66.9605 58.3414 71.1402C56.2444 66.5297 53.9751 61.833 53.3718 56.7484M86.1627 67.1329C85.4302 71.1546 84.7407 79.557 84.2093 83.6792C83.4767 89.3095 81.8968 98.0566 79.8429 105.712C78.421 110.998 76.6544 116.097 74.5717 120.937C70.5788 114.086 68.2376 105.64 66.7295 97.0655C65.2213 88.4908 64.4888 79.7006 63.3685 71.0253C62.6359 65.3232 62.4061 62.3931 62.2051 59.2763C61.7167 51.7214 61.8029 45.0569 61.8891 38.4786C61.9322 34.6868 62.004 33.1068 62.0183 28.4819C62.0327 22.0617 62.0183 19.347 62.0183 19.347C61.9609 11.3037 61.7742 7.15281 63.9143 6.11867C64.1872 5.98941 64.4314 5.93196 64.575 5.91759V3.72005C64.575 1.89594 66.0544 0.430896 67.8641 0.430896H81.6671C83.4912 0.430896 84.9562 1.9103 84.9562 3.72005V5.88886C85.66 6.23357 86.1483 6.6501 86.3351 7.12408C87.6134 10.1547 86.8808 20.1801 87.5415 38.5648C87.8 45.7176 86.6798 64.2603 86.1627 67.1329ZM95.671 56.7484C95.0678 61.833 92.7984 66.5297 90.7014 71.1402C91.9653 66.9605 92.5111 63.5421 92.7697 61.1579C92.9851 59.1327 93.4304 54.0625 93.4734 53.5455C93.7176 50.7878 93.7751 49.768 94.1054 48.188C94.723 45.2005 95.6566 43.0317 95.9008 42.4859C97.6244 38.6079 99.865 35.9795 103.097 32.6041C103.599 32.0871 104.102 31.57 104.605 31.0386C103.786 32.0296 102.967 33.0207 102.177 34.0261C99.6926 37.1429 98.7878 40.0011 97.4951 44.2382C96.504 48.346 96.1306 52.5688 95.6567 56.7484" fill="white"/>
<path d="M68.9128 97.7722C70.2199 104.537 71.7136 107.166 73.3654 113.6L67.1318 80.9961C67.3473 85.2476 68.1085 93.5925 68.9272 97.7722" fill="white"/>
<path d="M79.4983 98.1003C80.317 93.9206 81.0639 85.5757 81.2937 81.3242L75.0601 113.928C76.7118 107.494 78.1913 104.865 79.5127 98.1003" fill="white"/>
<path d="M76.9706 23.7812H72.4318C69.8464 23.7812 67.7495 25.8782 67.7495 28.4636V67.3587C67.7495 69.9441 69.8464 72.0411 72.4318 72.0411H76.9706C79.5559 72.0411 81.6529 69.9441 81.6529 67.3587V28.4636C81.6529 25.8782 79.5559 23.7812 76.9706 23.7812Z" fill="white"/>
<path d="M67.7637 9.95894C67.7637 9.95894 67.7637 9.82967 67.7637 9.77221C67.9217 6.98578 67.893 4.1419 67.7637 1.35547C67.6919 3.55301 67.6489 5.76493 67.7063 7.97683C67.7207 8.63753 67.7494 9.29824 67.7637 9.95894Z" fill="white"/>
<path d="M66.4713 9.95894C66.4713 9.95894 66.4713 9.82967 66.4713 9.77221C66.6293 6.98578 66.6005 4.1419 66.4713 1.35547C66.3994 3.55301 66.3564 5.76493 66.4138 7.97683C66.4282 8.63753 66.4569 9.29824 66.4713 9.95894Z" fill="white"/>
<path d="M70.3351 9.95894C70.3351 9.95894 70.3351 9.82967 70.3351 9.77221C70.4931 6.98578 70.4644 4.1419 70.3351 1.35547C70.2633 3.55301 70.2201 5.76493 70.2776 7.97683C70.2919 8.63753 70.3207 9.29824 70.3351 9.95894Z" fill="white"/>
<path d="M69.0562 9.95894C69.0562 9.95894 69.0562 9.82967 69.0562 9.77221C69.2142 6.98578 69.1855 4.1419 69.0562 1.35547C68.9844 3.55301 68.9413 5.76493 68.9988 7.97683C69.0132 8.63753 69.0419 9.29824 69.0562 9.95894Z" fill="white"/>
<path d="M72.9058 9.95894C72.9058 9.95894 72.9058 9.82967 72.9058 9.77221C73.0638 6.98578 73.0351 4.1419 72.9058 1.35547C72.834 3.55301 72.791 5.76493 72.8484 7.97683C72.8628 8.63753 72.8915 9.29824 72.9058 9.95894Z" fill="white"/>
<path d="M71.627 9.95894C71.627 9.95894 71.627 9.82967 71.627 9.77221C71.785 6.98578 71.7563 4.1419 71.627 1.35547C71.5552 3.55301 71.5121 5.76493 71.5696 7.97683C71.584 8.63753 71.6127 9.29824 71.627 9.95894Z" fill="white"/>
<path d="M75.4908 9.95894C75.4908 9.95894 75.4908 9.82967 75.4908 9.77221C75.6488 6.98578 75.6201 4.1419 75.4908 1.35547C75.419 3.55301 75.3759 5.76493 75.4334 7.97683C75.4477 8.63753 75.4764 9.29824 75.4908 9.95894Z" fill="white"/>
<path d="M74.1984 9.95894C74.1984 9.95894 74.1984 9.82967 74.1984 9.77221C74.3564 6.98578 74.3276 4.1419 74.1984 1.35547C74.1266 3.55301 74.0834 5.76493 74.1409 7.97683C74.1552 8.63753 74.184 9.29824 74.1984 9.95894Z" fill="white"/>
<path d="M78.0617 9.95894C78.0617 9.95894 78.0617 9.82967 78.0617 9.77221C78.2197 6.98578 78.1909 4.1419 78.0617 1.35547C77.9898 3.55301 77.9467 5.76493 78.0041 7.97683C78.0185 8.63753 78.0473 9.29824 78.0617 9.95894Z" fill="white"/>
<path d="M76.7691 9.95894C76.7691 9.95894 76.7691 9.82967 76.7691 9.77221C76.9271 6.98578 76.8984 4.1419 76.7691 1.35547C76.6973 3.55301 76.6542 5.76493 76.7117 7.97683C76.7261 8.63753 76.7547 9.29824 76.7691 9.95894Z" fill="white"/>
<path d="M80.6329 9.95894C80.6329 9.95894 80.6329 9.82967 80.6329 9.77221C80.7909 6.98578 80.7621 4.1419 80.6329 1.35547C80.5611 3.55301 80.518 5.76493 80.5755 7.97683C80.5898 8.63753 80.6185 9.29824 80.6329 9.95894Z" fill="white"/>
<path d="M79.3407 9.95894C79.3407 9.95894 79.3407 9.82967 79.3407 9.77221C79.4987 6.98578 79.47 4.1419 79.3407 1.35547C79.2689 3.55301 79.2257 5.76493 79.2832 7.97683C79.2976 8.63753 79.3263 9.29824 79.3407 9.95894Z" fill="white"/>
<path d="M83.1321 9.95894C83.1321 9.95894 83.1321 9.82967 83.1321 9.77221C83.2901 6.98578 83.2614 4.1419 83.1321 1.35547C83.0603 3.55301 83.0173 5.76493 83.0747 7.97683C83.0891 8.63753 83.1178 9.29824 83.1321 9.95894Z" fill="white"/>
<path d="M81.8539 9.95894C81.8539 9.95894 81.8539 9.82967 81.8539 9.77221C82.0119 6.98578 81.9832 4.1419 81.8539 1.35547C81.7821 3.55301 81.7389 5.76493 81.7964 7.97683C81.8107 8.63753 81.8395 9.29824 81.8539 9.95894Z" fill="white"/>
<path d="M115.737 44.026C114.731 44.6724 113.726 45.3331 112.835 46.1374C112.218 46.7407 111.658 47.4014 111.141 48.1051C109.963 49.7138 109.015 51.4661 107.794 53.046C106.43 54.7265 104.821 56.1772 103.327 57.7284C105.999 55.9474 108.8 54.1807 110.825 51.6385C112.491 49.5415 114.099 47.387 116.01 45.5054C118.121 43.6526 119.572 42.4174 121.956 41.57C122.717 41.2827 123.493 41.0242 124.269 40.7656C123.823 40.8805 123.378 40.9954 122.933 41.096C120.39 41.6849 117.934 42.5897 115.737 44.0117" fill="white"/>
<path d="M148.47 17.0586C147.651 17.1017 146.847 17.1591 146.028 17.2022C141.375 17.389 136.965 18.1358 133.202 19.7589C131.464 20.4914 129.769 21.2813 128.304 22.3011C127.313 23.1054 126.423 23.9959 125.661 24.9726C123.895 27.2133 122.616 29.7699 120.749 31.9244C118.667 34.2225 116.024 36.0896 113.654 38.1579C118.207 36.0753 123.004 34.0501 126.107 30.5742C128.649 27.6873 131.076 24.6997 134.15 22.2437C137.626 19.8881 140.01 18.3225 144.29 17.6618C145.669 17.432 147.062 17.2453 148.456 17.0586" fill="white"/>
<path d="M30.4917 46.1187C32.402 48.0003 34.0106 50.1547 35.6767 52.2374C37.7019 54.7796 40.5026 56.5463 43.1742 58.3273C41.6804 56.7761 40.0718 55.3254 38.7073 53.6449C37.4864 52.0794 36.5384 50.3127 35.3607 48.704C34.8436 48.0003 34.2835 47.3396 33.6658 46.7363C32.7753 45.932 31.77 45.2713 30.7646 44.6249C28.567 43.2174 26.1109 42.2981 23.5687 41.7093C23.1234 41.5943 22.6782 41.4794 22.2329 41.3789C23.0085 41.6374 23.7841 41.896 24.5453 42.1832C26.9296 43.0307 28.3659 44.2659 30.4917 46.1187Z" fill="white"/>
<path d="M35.3464 37.8298C32.9765 35.7615 30.3337 33.9087 28.251 31.5962C26.3838 29.4418 25.1055 26.8708 23.3388 24.6445C22.5776 23.6678 21.6871 22.7773 20.6961 21.973C19.231 20.9532 17.5361 20.1632 15.7982 19.4307C12.0351 17.8077 7.62564 17.0608 2.97201 16.8741C2.16768 16.8166 1.34897 16.7736 0.530273 16.7305C1.92349 16.9172 3.31674 17.1039 4.69559 17.3337C8.97578 17.9944 11.36 19.56 14.8359 21.9155C17.924 24.3716 20.3369 27.3591 22.8792 30.2461C25.9816 33.7363 30.7789 35.7615 35.332 37.8298" fill="white"/>
</svg>
